HIERARCHY
ROOT Hips
{
	OFFSET -3.958830 18.904000 13.208200
	CHANNELS 6 Xposition Yposition Zposition Zrotation Yrotation Xrotation 
	JOINT LHipJoint
	{
		OFFSET 0.000000 0.000000 0.000000
		CHANNELS 3 Zrotation Yrotation Xrotation
		JOINT LeftUpLeg
		{
			OFFSET 1.800000 -1.400000 0.085000
			CHANNELS 3 Zrotation Yrotation Xrotation
			JOINT LeftLeg
			{
				OFFSET 2.215000 -6.000000 0.000000
				CHANNELS 3 Zrotation Yrotation Xrotation
				JOINT LeftFoot
				{
					OFFSET 2.500000 -6.900000 0.000000
					CHANNELS 3 Zrotation Yrotation Xrotation
					JOINT LeftToeBase
					{
						OFFSET 0.200000 -0.500000 1.950000
						CHANNELS 3 Zrotation Yrotation Xrotation
						End Site
						{
							OFFSET 0.000000 0.000000 0.000000
						}
					}
				}
			}
		}
	}
	JOINT RHipJoint
	{
		OFFSET 0.000000 0.000000 0.000000
		CHANNELS 3 Zrotation Yrotation Xrotation
		JOINT RightUpLeg
		{
			OFFSET -1.800000 -1.400000 0.085000
			CHANNELS 3 Zrotation Yrotation Xrotation
			JOINT RightLeg
			{
				OFFSET -2.215000 -6.000000 0.000000
				CHANNELS 3 Zrotation Yrotation Xrotation
				JOINT RightFoot
				{
					OFFSET -2.500000 -6.900000 0.000000
					CHANNELS 3 Zrotation Yrotation Xrotation
					JOINT RightToeBase
					{
						OFFSET -0.200000 -0.500000 1.950000
						CHANNELS 3 Zrotation Yrotation Xrotation
						End Site
						{
							OFFSET 0.000000 0.000000 0.000000
						}
					}
				}
			}
		}
	}
	JOINT LowerBack
	{
		OFFSET 0.000000 0.000000 0.000000
		CHANNELS 3 Zrotation Yrotation Xrotation
		JOINT Spine
		{
			OFFSET -0.087000 1.940000 -0.288900
			CHANNELS 3 Zrotation Yrotation Xrotation
			JOINT Spine1
			{
				OFFSET 0.000000 1.950000 0.060000
				CHANNELS 3 Zrotation Yrotation Xrotation
				JOINT Neck
				{
					OFFSET 0.000000 0.000000 0.000000
					CHANNELS 3 Zrotation Yrotation Xrotation
					JOINT Neck1
					{
						OFFSET 0.000000 1.600000 0.340000
						CHANNELS 3 Zrotation Yrotation Xrotation
						JOINT Head
						{
							OFFSET 0.000000 1.667000 -0.240000
							CHANNELS 3 Zrotation Yrotation Xrotation
							End Site
							{
								OFFSET 0.000000 0.000000 0.000000
							}
						}
					}
				}
				JOINT LeftShoulder
				{
					OFFSET 0.000000 0.000000 0.000000
					CHANNELS 3 Zrotation Yrotation Xrotation
					JOINT LeftArm
					{
						OFFSET 2.700000 1.550000 -0.730000
						CHANNELS 3 Zrotation Yrotation Xrotation
						JOINT LeftForeArm
						{
							OFFSET 5.450000 0.000000 0.000000
							CHANNELS 3 Zrotation Yrotation Xrotation
							JOINT LeftHand
							{
								OFFSET 3.450000 0.000000 0.000000
								CHANNELS 3 Zrotation Yrotation Xrotation
								JOINT LeftHandIndex1
								{
									OFFSET 0.750000 0.000000 0.000000
									CHANNELS 3 Zrotation Yrotation Xrotation
									End Site
									{
										OFFSET 0.000000 0.000000 0.000000
									}
								}
							}
						}
					}
				}
				JOINT RightShoulder
				{
					OFFSET 0.000000 0.000000 0.000000
					CHANNELS 3 Zrotation Yrotation Xrotation
					JOINT RightArm
					{
						OFFSET -2.700000 1.550000 -0.730000
						CHANNELS 3 Zrotation Yrotation Xrotation
						JOINT RightForeArm
						{
							OFFSET -5.450000 0.000000 0.000000
							CHANNELS 3 Zrotation Yrotation Xrotation
							JOINT RightHand
							{
								OFFSET -3.450000 0.000000 0.000000
								CHANNELS 3 Zrotation Yrotation Xrotation
								JOINT RightHandIndex1
								{
									OFFSET -0.750000 0.000000 0.000000
									CHANNELS 3 Zrotation Yrotation Xrotation
									End Site
									{
										OFFSET 0.000000 0.000000 0.000000
									}
								}
							}
						}
					}
				}
			}
		}
	}
}
MOTION
Frames: 8
Frame Time: 0.016667
-1.428260 16.850400 -1.900900 -1.600815 -32.961853 1.826765 -15.394159 14.396684 2.872412 10.509363 -1.046321 -7.206771 -7.206420 6.129060 9.755301 -0.559573 5.042156 3.032369 0.130310 0.171300 -0.136750 18.038800 -10.019048 2.267264 -8.666100 0.780242 -18.112843 0.557625 -2.511136 8.202187 0.299854 -2.682575 3.564632 0.470250 0.820310 0.029390 -2.624111 -5.183674 -6.618332 1.589082 -8.072929 6.072471 -2.920361 -7.808571 8.591522 -2.009837 -7.917131 -8.673112 -16.714468 16.815030 20.652887 -0.466290 12.931880 -0.195610 -5.703697 -5.028306 1.275738 -0.043835 -25.319541 10.973073 164.754390 -51.756614 -145.137817 -4.567340 3.253173 -0.113030 0.652080 -0.521320 0.210000 10.373309 7.618724 5.436893 -4.719277 -4.807037 5.158018 -171.588075 44.376061 -164.613256 1.720661 -2.433814 -0.462070 0.508820 0.218690 -0.061740 
-1.457810 16.851140 -1.905240 -1.644312 -33.271737 1.667528 -15.386237 14.394163 2.862427 10.673093 -0.996378 -7.018594 -7.171570 6.179177 9.943645 -0.553505 5.066850 3.015332 0.137840 0.181850 -0.130610 18.044580 -10.059264 2.263241 -8.312319 0.819620 -18.063650 0.364152 -2.516747 8.673939 0.299435 -2.693593 3.555212 0.474360 0.811880 0.042430 -2.633526 -5.101059 -6.607606 1.497050 -7.786719 6.113390 -3.061172 -7.529261 8.637220 -1.946986 -7.856312 -8.512296 -16.543701 16.682111 20.836245 -0.791530 12.973240 -0.263580 -5.545319 -4.498832 1.211052 -0.211056 -25.016426 11.036462 164.433125 -51.745857 -144.528147 -4.578743 3.263531 -0.123080 0.657770 -0.518070 0.205650 10.045228 7.180551 5.187505 -5.042062 -4.200889 5.577406 -172.469835 43.803707 -166.164396 1.716258 -2.451945 -0.448340 0.493260 0.217690 -0.062010 
-1.515940 16.847190 -1.901590 -1.647471 -33.230331 1.004539 -15.361335 14.411741 2.827562 10.859565 -0.863470 -6.297055 -6.555509 6.111936 10.077033 -0.551369 5.052590 3.019083 0.165870 0.220190 -0.117880 18.061648 -10.149671 2.246787 -8.099244 0.748404 -17.372230 0.383858 -2.623088 9.404140 0.274798 -2.750461 3.534631 0.493250 0.795010 0.034390 -2.676696 -4.975542 -6.581705 1.423805 -7.448041 6.278508 -3.351163 -7.309851 8.861247 -2.096514 -7.789647 -8.391570 -16.537281 16.830303 21.686245 -0.212190 12.759350 -0.685420 -4.647516 -3.833918 1.031911 0.765160 -24.594358 10.827976 163.851881 -52.353630 -143.685350 -4.557499 3.257075 -0.111810 0.637730 -0.500410 0.214590 9.352690 6.591511 5.010643 -5.355436 -3.058890 6.618384 -174.292116 41.649248 -169.213746 1.717916 -2.461459 -0.440770 0.501340 0.200940 -0.058540 
-1.580040 16.851340 -1.898850 -2.165529 -32.910285 0.465449 -15.306697 14.431059 2.766893 11.546420 -0.796447 -5.879796 -5.847839 6.141825 10.905116 -0.553249 5.055881 2.998055 0.210710 0.264980 -0.090170 18.100693 -10.268671 2.246546 -7.571726 0.662757 -16.494893 0.834241 -2.892452 10.586208 0.226987 -2.827721 3.499720 0.506480 0.749260 0.026470 -2.806845 -4.789832 -6.555618 2.378524 -7.473366 6.755599 -4.274929 -7.294114 9.190409 -2.008675 -8.213449 -8.519137 -17.593420 17.087754 22.403368 0.480960 12.254690 -1.795940 -4.759696 -3.845834 1.239726 1.411134 -22.797477 10.387342 164.282486 -51.885769 -144.302323 -4.497420 3.253036 -0.070840 0.584480 -0.460510 0.221570 9.193245 6.924231 4.931629 -7.168145 -2.555884 7.172189 -176.055162 39.923041 -172.751477 1.745672 -2.446491 -0.423990 0.505040 0.179240 -0.060150 
-1.662870 16.839650 -1.893230 -2.012385 -32.683991 0.269030 -15.313494 14.456636 2.724558 11.698675 -0.796039 -5.874677 -5.432873 6.152307 11.501134 -0.583602 5.082769 2.982116 0.233780 0.285530 -0.068930 18.095966 -10.297730 2.228382 -7.263093 0.660540 -16.145128 1.209291 -3.091119 11.564028 0.214167 -2.918483 3.454651 0.531550 0.748760 0.036840 -2.777512 -4.776792 -6.494425 2.026098 -7.285461 6.135364 -4.311311 -7.076621 9.463702 -2.021943 -8.116888 -8.260016 -17.452893 17.397171 22.790772 0.385940 12.522340 -1.797330 -4.205797 -3.279166 1.137252 1.338124 -23.079039 10.739156 164.201444 -52.164299 -144.143394 -4.514563 3.265627 -0.071070 0.595440 -0.462210 0.222880 8.601007 6.402323 4.518336 -8.554798 -2.091543 7.608311 -176.141612 38.764492 -172.020408 1.734826 -2.477891 -0.428310 0.502330 0.173820 -0.070320 
-1.740800 16.832300 -1.887450 -2.553995 -32.584163 0.047616 -15.300535 14.497445 2.694197 12.704917 -0.833893 -5.692624 -5.203176 6.323247 12.362663 -0.587995 5.183062 2.916577 0.238990 0.275300 -0.057800 18.102512 -10.324092 2.230402 -6.408476 0.665062 -15.496192 1.427695 -3.313667 12.706538 0.189608 -2.992839 3.418610 0.519280 0.714300 0.043260 -2.789364 -4.782509 -6.502000 2.479336 -7.269328 6.326001 -4.518882 -7.027143 9.850707 -1.786703 -8.155762 -8.503851 -17.734642 17.562292 23.467759 0.418730 12.638470 -2.154390 -3.914586 -3.797750 1.256925 1.380678 -23.630942 10.625983 163.006705 -52.347703 -142.237527 -4.491076 3.259570 -0.039730 0.569840 -0.446650 0.206000 7.799215 6.907179 4.713969 -9.698331 -1.854029 7.919652 -177.226613 37.666690 -174.615106 1.743790 -2.464578 -0.422050 0.480450 0.183800 -0.087730 
-1.817780 16.816770 -1.887080 -2.755825 -32.772028 -0.306303 -15.284137 14.575982 2.649050 13.179742 -0.859282 -5.795389 -4.725371 6.502173 13.952541 -0.595507 5.268397 2.862822 0.254300 0.278500 -0.042780 18.104477 -10.380682 2.225643 -5.887545 0.682957 -15.399670 1.399323 -3.517239 14.346409 0.163245 -3.058213 3.377967 0.515380 0.689300 0.048400 -2.784339 -4.798692 -6.489847 2.405891 -7.090333 6.539953 -4.449963 -6.856039 10.324464 -1.783341 -8.192172 -8.907999 -18.020553 17.736509 23.966681 0.904930 12.418800 -2.775420 -2.366066 -3.981939 1.572925 1.095279 -23.992023 10.629710 161.758587 -52.427689 -140.504584 -4.462338 3.248531 -0.005020 0.539750 -0.424700 0.200550 6.215892 7.198034 4.900772 -10.156672 -0.765645 8.413457 -177.870097 35.826744 -175.938301 1.738474 -2.453597 -0.417340 0.475000 0.184440 -0.095640 
-1.897990 16.803390 -1.888380 -2.865266 -33.137130 -0.501243 -15.263408 14.612022 2.596166 13.414401 -0.881542 -5.895070 -4.108093 6.543472 15.095461 -0.612510 5.302603 2.846266 0.256500 0.288600 -0.042490 18.116625 -10.438745 2.235890 -5.416485 0.739436 -15.543281 1.449114 -3.686517 15.728368 0.151648 -3.124324 3.354684 0.526500 0.692650 0.032470 -2.818049 -4.729937 -6.459876 2.364323 -6.897789 6.488601 -4.618585 -6.678717 10.330662 -1.852597 -8.152360 -8.918230 -18.002796 18.024413 24.306194 1.306160 12.407620 -3.139990 -1.579033 -4.356132 1.515403 2.206875 -24.541633 10.442127 161.679817 -52.870819 -140.476608 -4.454799 3.223865 0.006790 0.533390 -0.420850 0.202240 5.529536 7.591563 4.834558 -11.031183 0.481088 8.494514 -177.384847 34.672529 -173.504665 1.733275 -2.424582 -0.430720 0.500960 0.184750 -0.097020 
